<svg width="146" height="58" viewBox="0 0 146 58" fill="none" xmlns="http://www.w3.org/2000/svg">
<g clip-path="url(#clip0_2_2548)">
<path d="M17 27.0103C20.3137 27.0103 23 24.3217 23 21.0052C23 17.6886 20.3137 15 17 15C13.6863 15 11 17.6886 11 21.0052C11 24.3217 13.6863 27.0103 17 27.0103Z" stroke="white" stroke-width="3"/>
<path d="M29.7274 45.6457C29.7274 42.4218 28.4631 39.3299 26.2127 37.0502C23.9623 34.7706 20.91 33.4899 17.7274 33.4899C14.5448 33.4899 11.4926 34.7706 9.24214 37.0502C6.9917 39.3299 5.72742 42.4218 5.72742 45.6457H29.7274Z" stroke="white" stroke-width="3"/>
<path d="M49.9113 31.2832H52.8312C52.7727 32.2402 52.509 33.0898 52.0402 33.832C51.578 34.5742 50.9302 35.1536 50.0969 35.5703C49.2701 35.987 48.274 36.1953 47.1086 36.1953C46.1971 36.1953 45.3801 36.0391 44.6574 35.7266C43.9348 35.4076 43.3163 34.9518 42.802 34.3594C42.2941 33.7669 41.9068 33.0508 41.6398 32.2109C41.3729 31.3711 41.2395 30.4303 41.2395 29.3887V28.4023C41.2395 27.3607 41.3762 26.4199 41.6496 25.5801C41.9296 24.7337 42.3267 24.0143 42.841 23.4219C43.3618 22.8294 43.9836 22.3737 44.7062 22.0547C45.4289 21.7357 46.2362 21.5762 47.1281 21.5762C48.313 21.5762 49.3124 21.791 50.1262 22.2207C50.9465 22.6504 51.5812 23.2428 52.0305 23.998C52.4862 24.7533 52.7596 25.6126 52.8508 26.5762H49.9211C49.8885 26.0033 49.7746 25.5182 49.5793 25.1211C49.384 24.7174 49.0878 24.4147 48.6906 24.2129C48.3 24.0046 47.7792 23.9004 47.1281 23.9004C46.6398 23.9004 46.2134 23.9915 45.8488 24.1738C45.4842 24.3561 45.1783 24.6328 44.9309 25.0039C44.6835 25.375 44.4979 25.8438 44.3742 26.4102C44.257 26.9701 44.1984 27.6276 44.1984 28.3828V29.3887C44.1984 30.1243 44.2538 30.7721 44.3645 31.332C44.4751 31.8854 44.6444 32.3542 44.8723 32.7383C45.1066 33.1159 45.4061 33.4023 45.7707 33.5977C46.1418 33.7865 46.5878 33.8809 47.1086 33.8809C47.7206 33.8809 48.2251 33.7832 48.6223 33.5879C49.0194 33.3926 49.3221 33.1029 49.5305 32.7188C49.7453 32.3346 49.8723 31.8561 49.9113 31.2832ZM57.4234 21V36H54.6109V21H57.4234ZM57.023 30.3457H56.2516C56.2581 29.61 56.3557 28.9329 56.5445 28.3145C56.7333 27.6895 57.0035 27.1491 57.3551 26.6934C57.7066 26.2311 58.1266 25.873 58.6148 25.6191C59.1096 25.3652 59.6565 25.2383 60.2555 25.2383C60.7763 25.2383 61.2483 25.3132 61.6715 25.4629C62.1012 25.6061 62.469 25.8405 62.775 26.166C63.0875 26.485 63.3284 26.9049 63.4977 27.4258C63.6669 27.9466 63.7516 28.5781 63.7516 29.3203V36H60.9195V29.3008C60.9195 28.832 60.8512 28.4642 60.7145 28.1973C60.5842 27.9238 60.3922 27.7318 60.1383 27.6211C59.8909 27.5039 59.5849 27.4453 59.2203 27.4453C58.8167 27.4453 58.4716 27.5202 58.1852 27.6699C57.9052 27.8197 57.6806 28.028 57.5113 28.2949C57.3421 28.5553 57.2184 28.8613 57.1402 29.2129C57.0621 29.5645 57.023 29.9421 57.023 30.3457ZM71.6934 33.6172V28.9102C71.6934 28.5716 71.638 28.2819 71.5273 28.041C71.4167 27.7936 71.2441 27.6016 71.0098 27.4648C70.7819 27.3281 70.4857 27.2598 70.1211 27.2598C69.8086 27.2598 69.5384 27.3151 69.3105 27.4258C69.0827 27.5299 68.9069 27.6829 68.7832 27.8848C68.6595 28.0801 68.5977 28.3112 68.5977 28.5781H65.7852C65.7852 28.1289 65.8893 27.7025 66.0977 27.2988C66.306 26.8952 66.6087 26.5404 67.0059 26.2344C67.403 25.9219 67.875 25.6777 68.4219 25.502C68.9753 25.3262 69.5938 25.2383 70.2773 25.2383C71.0977 25.2383 71.8268 25.375 72.4648 25.6484C73.1029 25.9219 73.6042 26.332 73.9688 26.8789C74.3398 27.4258 74.5254 28.1094 74.5254 28.9297V33.4512C74.5254 34.0306 74.5612 34.5059 74.6328 34.877C74.7044 35.2415 74.8086 35.5605 74.9453 35.834V36H72.1035C71.9668 35.7135 71.8626 35.3555 71.791 34.9258C71.7259 34.4896 71.6934 34.0534 71.6934 33.6172ZM72.0645 29.5645L72.084 31.1562H70.5117C70.1406 31.1562 69.8184 31.1986 69.5449 31.2832C69.2715 31.3678 69.0469 31.4883 68.8711 31.6445C68.6953 31.7943 68.5651 31.9701 68.4805 32.1719C68.4023 32.3737 68.3633 32.5951 68.3633 32.8359C68.3633 33.0768 68.4186 33.2949 68.5293 33.4902C68.64 33.679 68.7995 33.8288 69.0078 33.9395C69.2161 34.0436 69.4603 34.0957 69.7402 34.0957C70.1634 34.0957 70.5312 34.0111 70.8438 33.8418C71.1562 33.6725 71.3971 33.4642 71.5664 33.2168C71.7422 32.9694 71.8333 32.735 71.8398 32.5137L72.582 33.7051C72.4779 33.972 72.3346 34.2487 72.1523 34.5352C71.9766 34.8216 71.752 35.0918 71.4785 35.3457C71.2051 35.5931 70.8763 35.7982 70.4922 35.9609C70.1081 36.1172 69.6523 36.1953 69.125 36.1953C68.4544 36.1953 67.8457 36.0618 67.2988 35.7949C66.7585 35.5215 66.3288 35.1471 66.0098 34.6719C65.6973 34.1901 65.541 33.6432 65.541 33.0312C65.541 32.4779 65.6452 31.9863 65.8535 31.5566C66.0618 31.127 66.3678 30.7656 66.7715 30.4727C67.1816 30.1732 67.6927 29.9486 68.3047 29.7988C68.9167 29.6426 69.6263 29.5645 70.4336 29.5645H72.0645ZM79.6059 27.7383V36H76.7934V25.4336H79.4398L79.6059 27.7383ZM82.7895 25.3652L82.7406 27.9727C82.6039 27.9531 82.4379 27.9368 82.2426 27.9238C82.0538 27.9043 81.8812 27.8945 81.725 27.8945C81.3279 27.8945 80.9828 27.9466 80.6898 28.0508C80.4034 28.1484 80.1625 28.2949 79.9672 28.4902C79.7784 28.6855 79.6352 28.9232 79.5375 29.2031C79.4464 29.4831 79.3943 29.8021 79.3812 30.1602L78.8148 29.9844C78.8148 29.3008 78.8832 28.6725 79.0199 28.0996C79.1566 27.5202 79.3552 27.0156 79.6156 26.5859C79.8826 26.1562 80.2081 25.8242 80.5922 25.5898C80.9763 25.3555 81.4158 25.2383 81.9105 25.2383C82.0668 25.2383 82.2263 25.2513 82.3891 25.2773C82.5518 25.2969 82.6853 25.3262 82.7895 25.3652ZM89.5887 33.6172V28.9102C89.5887 28.5716 89.5333 28.2819 89.4227 28.041C89.312 27.7936 89.1395 27.6016 88.9051 27.4648C88.6772 27.3281 88.381 27.2598 88.0164 27.2598C87.7039 27.2598 87.4337 27.3151 87.2059 27.4258C86.978 27.5299 86.8022 27.6829 86.6785 27.8848C86.5548 28.0801 86.493 28.3112 86.493 28.5781H83.6805C83.6805 28.1289 83.7846 27.7025 83.993 27.2988C84.2013 26.8952 84.504 26.5404 84.9012 26.2344C85.2983 25.9219 85.7703 25.6777 86.3172 25.502C86.8706 25.3262 87.4891 25.2383 88.1727 25.2383C88.993 25.2383 89.7221 25.375 90.3602 25.6484C90.9982 25.9219 91.4995 26.332 91.8641 26.8789C92.2352 27.4258 92.4207 28.1094 92.4207 28.9297V33.4512C92.4207 34.0306 92.4565 34.5059 92.5281 34.877C92.5997 35.2415 92.7039 35.5605 92.8406 35.834V36H89.9988C89.8621 35.7135 89.7579 35.3555 89.6863 34.9258C89.6212 34.4896 89.5887 34.0534 89.5887 33.6172ZM89.9598 29.5645L89.9793 31.1562H88.407C88.0359 31.1562 87.7137 31.1986 87.4402 31.2832C87.1668 31.3678 86.9422 31.4883 86.7664 31.6445C86.5906 31.7943 86.4604 31.9701 86.3758 32.1719C86.2977 32.3737 86.2586 32.5951 86.2586 32.8359C86.2586 33.0768 86.3139 33.2949 86.4246 33.4902C86.5353 33.679 86.6948 33.8288 86.9031 33.9395C87.1115 34.0436 87.3556 34.0957 87.6355 34.0957C88.0587 34.0957 88.4266 34.0111 88.7391 33.8418C89.0516 33.6725 89.2924 33.4642 89.4617 33.2168C89.6375 32.9694 89.7286 32.735 89.7352 32.5137L90.4773 33.7051C90.3732 33.972 90.2299 34.2487 90.0477 34.5352C89.8719 34.8216 89.6473 35.0918 89.3738 35.3457C89.1004 35.5931 88.7716 35.7982 88.3875 35.9609C88.0034 36.1172 87.5477 36.1953 87.0203 36.1953C86.3497 36.1953 85.741 36.0618 85.1941 35.7949C84.6538 35.5215 84.2241 35.1471 83.9051 34.6719C83.5926 34.1901 83.4363 33.6432 83.4363 33.0312C83.4363 32.4779 83.5405 31.9863 83.7488 31.5566C83.9572 31.127 84.2632 30.7656 84.6668 30.4727C85.077 30.1732 85.588 29.9486 86.2 29.7988C86.812 29.6426 87.5216 29.5645 88.3289 29.5645H89.9598ZM99.0539 33.998C99.399 33.998 99.7049 33.9329 99.9719 33.8027C100.239 33.666 100.447 33.4772 100.597 33.2363C100.753 32.9889 100.835 32.6992 100.841 32.3672H103.487C103.481 33.1094 103.282 33.7702 102.892 34.3496C102.501 34.9225 101.977 35.375 101.32 35.707C100.662 36.0326 99.9263 36.1953 99.1125 36.1953C98.2922 36.1953 97.576 36.0586 96.9641 35.7852C96.3586 35.5117 95.854 35.1341 95.4504 34.6523C95.0467 34.1641 94.744 33.5977 94.5422 32.9531C94.3404 32.3021 94.2395 31.6055 94.2395 30.8633V30.5801C94.2395 29.8314 94.3404 29.1348 94.5422 28.4902C94.744 27.8392 95.0467 27.2728 95.4504 26.791C95.854 26.3027 96.3586 25.9219 96.9641 25.6484C97.5695 25.375 98.2792 25.2383 99.093 25.2383C99.9589 25.2383 100.717 25.4043 101.368 25.7363C102.026 26.0684 102.54 26.5436 102.911 27.1621C103.289 27.7741 103.481 28.5 103.487 29.3398H100.841C100.835 28.9883 100.76 28.6693 100.616 28.3828C100.48 28.0964 100.278 27.8685 100.011 27.6992C99.7505 27.5234 99.4283 27.4355 99.0441 27.4355C98.634 27.4355 98.2987 27.5234 98.0383 27.6992C97.7779 27.8685 97.576 28.1029 97.4328 28.4023C97.2896 28.6953 97.1887 29.0306 97.1301 29.4082C97.078 29.7793 97.052 30.1699 97.052 30.5801V30.8633C97.052 31.2734 97.078 31.6673 97.1301 32.0449C97.1822 32.4225 97.2798 32.7578 97.423 33.0508C97.5728 33.3438 97.7779 33.5749 98.0383 33.7441C98.2987 33.9134 98.6372 33.998 99.0539 33.998ZM110.394 25.4336V27.4258H104.242V25.4336H110.394ZM105.765 22.8262H108.578V32.8164C108.578 33.1224 108.617 33.3568 108.695 33.5195C108.78 33.6823 108.903 33.7962 109.066 33.8613C109.229 33.9199 109.434 33.9492 109.681 33.9492C109.857 33.9492 110.013 33.9427 110.15 33.9297C110.293 33.9102 110.414 33.8906 110.511 33.8711L110.521 35.9414C110.28 36.0195 110.02 36.0814 109.74 36.127C109.46 36.1725 109.151 36.1953 108.812 36.1953C108.194 36.1953 107.653 36.0944 107.191 35.8926C106.735 35.6842 106.384 35.3522 106.136 34.8965C105.889 34.4408 105.765 33.8418 105.765 33.0996V22.8262ZM116.959 36.1953C116.139 36.1953 115.403 36.0651 114.752 35.8047C114.101 35.5378 113.548 35.1699 113.092 34.7012C112.643 34.2324 112.298 33.6888 112.057 33.0703C111.816 32.4453 111.695 31.7812 111.695 31.0781V30.6875C111.695 29.8867 111.809 29.1543 112.037 28.4902C112.265 27.8262 112.59 27.25 113.014 26.7617C113.443 26.2734 113.964 25.8991 114.576 25.6387C115.188 25.3717 115.878 25.2383 116.646 25.2383C117.395 25.2383 118.059 25.362 118.639 25.6094C119.218 25.8568 119.703 26.2083 120.094 26.6641C120.491 27.1198 120.79 27.6667 120.992 28.3047C121.194 28.9362 121.295 29.6393 121.295 30.4141V31.5859H112.896V29.7109H118.531V29.4961C118.531 29.1055 118.46 28.7572 118.316 28.4512C118.18 28.1387 117.971 27.8913 117.691 27.709C117.411 27.5267 117.053 27.4355 116.617 27.4355C116.246 27.4355 115.927 27.5169 115.66 27.6797C115.393 27.8424 115.175 28.0703 115.006 28.3633C114.843 28.6562 114.719 29.0013 114.635 29.3984C114.557 29.7891 114.518 30.2188 114.518 30.6875V31.0781C114.518 31.5013 114.576 31.8919 114.693 32.25C114.817 32.6081 114.99 32.9173 115.211 33.1777C115.439 33.4382 115.712 33.64 116.031 33.7832C116.357 33.9264 116.725 33.998 117.135 33.998C117.643 33.998 118.115 33.9004 118.551 33.7051C118.993 33.5033 119.374 33.2005 119.693 32.7969L121.061 34.2812C120.839 34.6003 120.536 34.9062 120.152 35.1992C119.775 35.4922 119.319 35.7331 118.785 35.9219C118.251 36.1042 117.643 36.1953 116.959 36.1953ZM125.809 27.7383V36H122.996V25.4336H125.643L125.809 27.7383ZM128.993 25.3652L128.944 27.9727C128.807 27.9531 128.641 27.9368 128.446 27.9238C128.257 27.9043 128.084 27.8945 127.928 27.8945C127.531 27.8945 127.186 27.9466 126.893 28.0508C126.607 28.1484 126.366 28.2949 126.17 28.4902C125.982 28.6855 125.838 28.9232 125.741 29.2031C125.649 29.4831 125.597 29.8021 125.584 30.1602L125.018 29.9844C125.018 29.3008 125.086 28.6725 125.223 28.0996C125.36 27.5202 125.558 27.0156 125.819 26.5859C126.086 26.1562 126.411 25.8242 126.795 25.5898C127.179 25.3555 127.619 25.2383 128.114 25.2383C128.27 25.2383 128.429 25.2513 128.592 25.2773C128.755 25.2969 128.888 25.3262 128.993 25.3652ZM136.134 33.0801C136.134 32.8783 136.075 32.696 135.958 32.5332C135.841 32.3704 135.623 32.2207 135.304 32.084C134.991 31.9408 134.539 31.8105 133.946 31.6934C133.412 31.5762 132.914 31.4297 132.452 31.2539C131.996 31.0716 131.599 30.8535 131.261 30.5996C130.929 30.3457 130.668 30.0462 130.479 29.7012C130.29 29.3496 130.196 28.9492 130.196 28.5C130.196 28.0573 130.29 27.6406 130.479 27.25C130.675 26.8594 130.951 26.5143 131.309 26.2148C131.674 25.9089 132.117 25.6712 132.637 25.502C133.165 25.3262 133.757 25.2383 134.415 25.2383C135.333 25.2383 136.121 25.3848 136.778 25.6777C137.442 25.9707 137.95 26.3743 138.302 26.8887C138.66 27.3965 138.839 27.9759 138.839 28.627H136.026C136.026 28.3535 135.968 28.1094 135.85 27.8945C135.74 27.6732 135.564 27.5007 135.323 27.377C135.089 27.2467 134.783 27.1816 134.405 27.1816C134.093 27.1816 133.822 27.237 133.595 27.3477C133.367 27.4518 133.191 27.5951 133.067 27.7773C132.95 27.9531 132.891 28.1484 132.891 28.3633C132.891 28.526 132.924 28.6725 132.989 28.8027C133.061 28.9264 133.175 29.0404 133.331 29.1445C133.487 29.2487 133.689 29.3464 133.936 29.4375C134.19 29.5221 134.503 29.6003 134.874 29.6719C135.636 29.8281 136.316 30.0332 136.915 30.2871C137.514 30.5345 137.989 30.873 138.341 31.3027C138.692 31.7259 138.868 32.2826 138.868 32.9727C138.868 33.4414 138.764 33.8711 138.555 34.2617C138.347 34.6523 138.048 34.9941 137.657 35.2871C137.266 35.5736 136.798 35.7982 136.251 35.9609C135.71 36.1172 135.102 36.1953 134.425 36.1953C133.442 36.1953 132.608 36.0195 131.925 35.668C131.248 35.3164 130.733 34.8704 130.382 34.3301C130.037 33.7832 129.864 33.2233 129.864 32.6504H132.53C132.543 33.0345 132.641 33.3438 132.823 33.5781C133.012 33.8125 133.249 33.9818 133.536 34.0859C133.829 34.1901 134.145 34.2422 134.483 34.2422C134.848 34.2422 135.151 34.1934 135.391 34.0957C135.632 33.9915 135.815 33.8548 135.938 33.6855C136.068 33.5098 136.134 33.3079 136.134 33.0801Z" fill="#FFF9FF"/>
</g>
<rect x="0.5" y="0.5" width="145" height="57" rx="7.5" stroke="#CEC8D4"/>
<defs>
<clipPath id="clip0_2_2548">
<rect width="146" height="58" rx="8" fill="white"/>
</clipPath>
</defs>
</svg>
