<svg width="146" height="58" viewBox="0 0 146 58" fill="none" xmlns="http://www.w3.org/2000/svg">
<g clip-path="url(#clip0_2_2526)">
<path fill-rule="evenodd" clip-rule="evenodd" d="M33.5897 30.0625C33.5897 30.6501 33.1147 31.125 32.5272 31.125H19.7772C19.1896 31.125 18.7147 30.6501 18.7147 30.0625V19.4375C18.7147 18.8499 19.1896 18.375 19.7772 18.375H32.5272C33.1147 18.375 33.5897 18.8499 33.5897 19.4375V30.0625ZM33.5897 16.25H18.7147C17.5417 16.25 16.5897 17.202 16.5897 18.375V31.125C16.5897 32.298 17.5417 33.25 18.7147 33.25H33.5897C34.7627 33.25 35.7147 32.298 35.7147 31.125V18.375C35.7147 17.202 34.7627 16.25 33.5897 16.25ZM34.6522 35.375C34.0657 35.375 33.5897 35.851 33.5897 36.4375C33.5897 37.0251 34.0657 37.5 34.6522 37.5C35.2397 37.5 35.7147 37.0251 35.7147 36.4375C35.7147 35.851 35.2397 35.375 34.6522 35.375ZM37.8397 41.75C37.8397 42.923 36.8877 43.875 35.7147 43.875H16.5897C15.4167 43.875 14.4647 42.923 14.4647 41.75V16.25C14.4647 15.077 15.4167 14.125 16.5897 14.125H35.7147C36.8877 14.125 37.8397 15.077 37.8397 16.25V41.75ZM35.7147 12H16.5897C14.2426 12 12.3397 13.9029 12.3397 16.25V41.75C12.3397 44.0971 14.2426 46 16.5897 46H35.7147C38.0617 46 39.9647 44.0971 39.9647 41.75V16.25C39.9647 13.9029 38.0617 12 35.7147 12ZM21.9022 37.5H20.8397V36.4375C20.8397 35.851 20.3647 35.375 19.7772 35.375C19.1896 35.375 18.7147 35.851 18.7147 36.4375V37.5H17.6522C17.0646 37.5 16.5897 37.9749 16.5897 38.5625C16.5897 39.1501 17.0646 39.625 17.6522 39.625H18.7147V40.6875C18.7147 41.2751 19.1896 41.75 19.7772 41.75C20.3647 41.75 20.8397 41.2751 20.8397 40.6875V39.625H21.9022C22.4897 39.625 22.9647 39.1501 22.9647 38.5625C22.9647 37.9749 22.4897 37.5 21.9022 37.5ZM28.2772 39.625C27.6907 39.625 27.2147 40.101 27.2147 40.6875C27.2147 41.2751 27.6907 41.75 28.2772 41.75C28.8647 41.75 29.3397 41.2751 29.3397 40.6875C29.3397 40.101 28.8647 39.625 28.2772 39.625ZM29.3397 35.375C28.7532 35.375 28.2772 35.851 28.2772 36.4375C28.2772 37.0251 28.7532 37.5 29.3397 37.5C29.9272 37.5 30.4022 37.0251 30.4022 36.4375C30.4022 35.851 29.9272 35.375 29.3397 35.375ZM33.5897 39.625C33.0021 39.625 32.5272 40.101 32.5272 40.6875C32.5272 41.2751 33.0021 41.75 33.5897 41.75C34.1772 41.75 34.6522 41.2751 34.6522 40.6875C34.6522 40.101 34.1772 39.625 33.5897 39.625Z" fill="#FFF9FF"/>
<path d="M62.4039 31.2832H65.3238C65.2652 32.2402 65.0016 33.0898 64.5328 33.832C64.0706 34.5742 63.4228 35.1536 62.5895 35.5703C61.7626 35.987 60.7665 36.1953 59.6012 36.1953C58.6897 36.1953 57.8727 36.0391 57.15 35.7266C56.4273 35.4076 55.8089 34.9518 55.2945 34.3594C54.7867 33.7669 54.3994 33.0508 54.1324 32.2109C53.8655 31.3711 53.732 30.4303 53.732 29.3887V28.4023C53.732 27.3607 53.8688 26.4199 54.1422 25.5801C54.4221 24.7337 54.8193 24.0143 55.3336 23.4219C55.8544 22.8294 56.4762 22.3737 57.1988 22.0547C57.9215 21.7357 58.7288 21.5762 59.6207 21.5762C60.8056 21.5762 61.8049 21.791 62.6188 22.2207C63.4391 22.6504 64.0738 23.2428 64.523 23.998C64.9788 24.7533 65.2522 25.6126 65.3434 26.5762H62.4137C62.3811 26.0033 62.2672 25.5182 62.0719 25.1211C61.8766 24.7174 61.5803 24.4147 61.1832 24.2129C60.7926 24.0046 60.2717 23.9004 59.6207 23.9004C59.1324 23.9004 58.706 23.9915 58.3414 24.1738C57.9768 24.3561 57.6708 24.6328 57.4234 25.0039C57.176 25.375 56.9905 25.8438 56.8668 26.4102C56.7496 26.9701 56.691 27.6276 56.691 28.3828V29.3887C56.691 30.1243 56.7464 30.7721 56.857 31.332C56.9677 31.8854 57.137 32.3542 57.3648 32.7383C57.5992 33.1159 57.8987 33.4023 58.2633 33.5977C58.6344 33.7865 59.0803 33.8809 59.6012 33.8809C60.2132 33.8809 60.7177 33.7832 61.1148 33.5879C61.512 33.3926 61.8147 33.1029 62.023 32.7188C62.2379 32.3346 62.3648 31.8561 62.4039 31.2832ZM66.7227 30.8242V30.6191C66.7227 29.8444 66.8333 29.1315 67.0547 28.4805C67.276 27.8229 67.5983 27.2533 68.0215 26.7715C68.4447 26.2897 68.9655 25.9154 69.584 25.6484C70.2025 25.375 70.9121 25.2383 71.7129 25.2383C72.5137 25.2383 73.2266 25.375 73.8516 25.6484C74.4766 25.9154 75.0007 26.2897 75.4238 26.7715C75.8535 27.2533 76.179 27.8229 76.4004 28.4805C76.6217 29.1315 76.7324 29.8444 76.7324 30.6191V30.8242C76.7324 31.5924 76.6217 32.3053 76.4004 32.9629C76.179 33.6139 75.8535 34.1836 75.4238 34.6719C75.0007 35.1536 74.4798 35.528 73.8613 35.7949C73.2428 36.0618 72.5332 36.1953 71.7324 36.1953C70.9316 36.1953 70.2188 36.0618 69.5938 35.7949C68.9753 35.528 68.4512 35.1536 68.0215 34.6719C67.5983 34.1836 67.276 33.6139 67.0547 32.9629C66.8333 32.3053 66.7227 31.5924 66.7227 30.8242ZM69.5352 30.6191V30.8242C69.5352 31.2669 69.5742 31.6803 69.6523 32.0645C69.7305 32.4486 69.8542 32.7871 70.0234 33.0801C70.1992 33.3665 70.4271 33.5911 70.707 33.7539C70.987 33.9167 71.3288 33.998 71.7324 33.998C72.123 33.998 72.4583 33.9167 72.7383 33.7539C73.0182 33.5911 73.2428 33.3665 73.4121 33.0801C73.5814 32.7871 73.7051 32.4486 73.7832 32.0645C73.8678 31.6803 73.9102 31.2669 73.9102 30.8242V30.6191C73.9102 30.1895 73.8678 29.7858 73.7832 29.4082C73.7051 29.0241 73.5781 28.6855 73.4023 28.3926C73.2331 28.0931 73.0085 27.8587 72.7285 27.6895C72.4486 27.5202 72.11 27.4355 71.7129 27.4355C71.3158 27.4355 70.9772 27.5202 70.6973 27.6895C70.4238 27.8587 70.1992 28.0931 70.0234 28.3926C69.8542 28.6855 69.7305 29.0241 69.6523 29.4082C69.5742 29.7858 69.5352 30.1895 69.5352 30.6191ZM81.3148 27.6895V36H78.5023V25.4336H81.1391L81.3148 27.6895ZM80.9047 30.3457H80.143C80.143 29.5645 80.2439 28.8613 80.4457 28.2363C80.6475 27.6048 80.9307 27.0677 81.2953 26.625C81.6599 26.1758 82.0928 25.834 82.5941 25.5996C83.102 25.3587 83.6684 25.2383 84.2934 25.2383C84.7882 25.2383 85.2406 25.3099 85.6508 25.4531C86.0609 25.5964 86.4125 25.8242 86.7055 26.1367C87.005 26.4492 87.2328 26.8626 87.3891 27.377C87.5518 27.8913 87.6332 28.5195 87.6332 29.2617V36H84.8012V29.252C84.8012 28.7832 84.7361 28.4186 84.6059 28.1582C84.4757 27.8978 84.2836 27.7155 84.0297 27.6113C83.7823 27.5007 83.4763 27.4453 83.1117 27.4453C82.7341 27.4453 82.4053 27.5202 82.1254 27.6699C81.852 27.8197 81.6241 28.028 81.4418 28.2949C81.266 28.5553 81.1326 28.8613 81.0414 29.2129C80.9503 29.5645 80.9047 29.9421 80.9047 30.3457ZM95.5848 33.0801C95.5848 32.8783 95.5262 32.696 95.409 32.5332C95.2918 32.3704 95.0737 32.2207 94.7547 32.084C94.4422 31.9408 93.9897 31.8105 93.3973 31.6934C92.8634 31.5762 92.3654 31.4297 91.9031 31.2539C91.4474 31.0716 91.0503 30.8535 90.7117 30.5996C90.3797 30.3457 90.1193 30.0462 89.9305 29.7012C89.7417 29.3496 89.6473 28.9492 89.6473 28.5C89.6473 28.0573 89.7417 27.6406 89.9305 27.25C90.1258 26.8594 90.4025 26.5143 90.7605 26.2148C91.1251 25.9089 91.5678 25.6712 92.0887 25.502C92.616 25.3262 93.2085 25.2383 93.866 25.2383C94.784 25.2383 95.5717 25.3848 96.2293 25.6777C96.8934 25.9707 97.4012 26.3743 97.7527 26.8887C98.1108 27.3965 98.2898 27.9759 98.2898 28.627H95.4773C95.4773 28.3535 95.4188 28.1094 95.3016 27.8945C95.1909 27.6732 95.0151 27.5007 94.7742 27.377C94.5398 27.2467 94.2339 27.1816 93.8563 27.1816C93.5438 27.1816 93.2736 27.237 93.0457 27.3477C92.8178 27.4518 92.6421 27.5951 92.5184 27.7773C92.4012 27.9531 92.3426 28.1484 92.3426 28.3633C92.3426 28.526 92.3751 28.6725 92.4402 28.8027C92.5118 28.9264 92.6258 29.0404 92.782 29.1445C92.9383 29.2487 93.1401 29.3464 93.3875 29.4375C93.6414 29.5221 93.9539 29.6003 94.325 29.6719C95.0867 29.8281 95.7671 30.0332 96.366 30.2871C96.965 30.5345 97.4402 30.873 97.7918 31.3027C98.1434 31.7259 98.3191 32.2826 98.3191 32.9727C98.3191 33.4414 98.215 33.8711 98.0066 34.2617C97.7983 34.6523 97.4988 34.9941 97.1082 35.2871C96.7176 35.5736 96.2488 35.7982 95.702 35.9609C95.1616 36.1172 94.5529 36.1953 93.8758 36.1953C92.8927 36.1953 92.0594 36.0195 91.3758 35.668C90.6987 35.3164 90.1844 34.8704 89.8328 34.3301C89.4878 33.7832 89.3152 33.2233 89.3152 32.6504H91.9813C91.9943 33.0345 92.0919 33.3438 92.2742 33.5781C92.463 33.8125 92.7007 33.9818 92.9871 34.0859C93.2801 34.1901 93.5958 34.2422 93.9344 34.2422C94.299 34.2422 94.6017 34.1934 94.8426 34.0957C95.0835 33.9915 95.2658 33.8548 95.3895 33.6855C95.5197 33.5098 95.5848 33.3079 95.5848 33.0801ZM99.7961 30.8242V30.6191C99.7961 29.8444 99.9068 29.1315 100.128 28.4805C100.349 27.8229 100.672 27.2533 101.095 26.7715C101.518 26.2897 102.039 25.9154 102.657 25.6484C103.276 25.375 103.986 25.2383 104.786 25.2383C105.587 25.2383 106.3 25.375 106.925 25.6484C107.55 25.9154 108.074 26.2897 108.497 26.7715C108.927 27.2533 109.252 27.8229 109.474 28.4805C109.695 29.1315 109.806 29.8444 109.806 30.6191V30.8242C109.806 31.5924 109.695 32.3053 109.474 32.9629C109.252 33.6139 108.927 34.1836 108.497 34.6719C108.074 35.1536 107.553 35.528 106.935 35.7949C106.316 36.0618 105.607 36.1953 104.806 36.1953C104.005 36.1953 103.292 36.0618 102.667 35.7949C102.049 35.528 101.525 35.1536 101.095 34.6719C100.672 34.1836 100.349 33.6139 100.128 32.9629C99.9068 32.3053 99.7961 31.5924 99.7961 30.8242ZM102.609 30.6191V30.8242C102.609 31.2669 102.648 31.6803 102.726 32.0645C102.804 32.4486 102.928 32.7871 103.097 33.0801C103.273 33.3665 103.501 33.5911 103.78 33.7539C104.06 33.9167 104.402 33.998 104.806 33.998C105.196 33.998 105.532 33.9167 105.812 33.7539C106.092 33.5911 106.316 33.3665 106.486 33.0801C106.655 32.7871 106.779 32.4486 106.857 32.0645C106.941 31.6803 106.984 31.2669 106.984 30.8242V30.6191C106.984 30.1895 106.941 29.7858 106.857 29.4082C106.779 29.0241 106.652 28.6855 106.476 28.3926C106.307 28.0931 106.082 27.8587 105.802 27.6895C105.522 27.5202 105.183 27.4355 104.786 27.4355C104.389 27.4355 104.051 27.5202 103.771 27.6895C103.497 27.8587 103.273 28.0931 103.097 28.3926C102.928 28.6855 102.804 29.0241 102.726 29.4082C102.648 29.7858 102.609 30.1895 102.609 30.6191ZM114.603 21V36H111.781V21H114.603ZM121.891 36.1953C121.07 36.1953 120.335 36.0651 119.684 35.8047C119.033 35.5378 118.479 35.1699 118.023 34.7012C117.574 34.2324 117.229 33.6888 116.988 33.0703C116.747 32.4453 116.627 31.7812 116.627 31.0781V30.6875C116.627 29.8867 116.741 29.1543 116.969 28.4902C117.197 27.8262 117.522 27.25 117.945 26.7617C118.375 26.2734 118.896 25.8991 119.508 25.6387C120.12 25.3717 120.81 25.2383 121.578 25.2383C122.327 25.2383 122.991 25.362 123.57 25.6094C124.15 25.8568 124.635 26.2083 125.025 26.6641C125.423 27.1198 125.722 27.6667 125.924 28.3047C126.126 28.9362 126.227 29.6393 126.227 30.4141V31.5859H117.828V29.7109H123.463V29.4961C123.463 29.1055 123.391 28.7572 123.248 28.4512C123.111 28.1387 122.903 27.8913 122.623 27.709C122.343 27.5267 121.985 27.4355 121.549 27.4355C121.178 27.4355 120.859 27.5169 120.592 27.6797C120.325 27.8424 120.107 28.0703 119.938 28.3633C119.775 28.6562 119.651 29.0013 119.566 29.3984C119.488 29.7891 119.449 30.2188 119.449 30.6875V31.0781C119.449 31.5013 119.508 31.8919 119.625 32.25C119.749 32.6081 119.921 32.9173 120.143 33.1777C120.37 33.4382 120.644 33.64 120.963 33.7832C121.288 33.9264 121.656 33.998 122.066 33.998C122.574 33.998 123.046 33.9004 123.482 33.7051C123.925 33.5033 124.306 33.2005 124.625 32.7969L125.992 34.2812C125.771 34.6003 125.468 34.9062 125.084 35.1992C124.706 35.4922 124.251 35.7331 123.717 35.9219C123.183 36.1042 122.574 36.1953 121.891 36.1953ZM133.641 33.0801C133.641 32.8783 133.582 32.696 133.465 32.5332C133.348 32.3704 133.13 32.2207 132.811 32.084C132.498 31.9408 132.046 31.8105 131.454 31.6934C130.92 31.5762 130.422 31.4297 129.959 31.2539C129.504 31.0716 129.107 30.8535 128.768 30.5996C128.436 30.3457 128.176 30.0462 127.987 29.7012C127.798 29.3496 127.704 28.9492 127.704 28.5C127.704 28.0573 127.798 27.6406 127.987 27.25C128.182 26.8594 128.459 26.5143 128.817 26.2148C129.181 25.9089 129.624 25.6712 130.145 25.502C130.672 25.3262 131.265 25.2383 131.922 25.2383C132.84 25.2383 133.628 25.3848 134.286 25.6777C134.95 25.9707 135.457 26.3743 135.809 26.8887C136.167 27.3965 136.346 27.9759 136.346 28.627H133.534C133.534 28.3535 133.475 28.1094 133.358 27.8945C133.247 27.6732 133.071 27.5007 132.83 27.377C132.596 27.2467 132.29 27.1816 131.912 27.1816C131.6 27.1816 131.33 27.237 131.102 27.3477C130.874 27.4518 130.698 27.5951 130.575 27.7773C130.457 27.9531 130.399 28.1484 130.399 28.3633C130.399 28.526 130.431 28.6725 130.496 28.8027C130.568 28.9264 130.682 29.0404 130.838 29.1445C130.995 29.2487 131.196 29.3464 131.444 29.4375C131.698 29.5221 132.01 29.6003 132.381 29.6719C133.143 29.8281 133.823 30.0332 134.422 30.2871C135.021 30.5345 135.496 30.873 135.848 31.3027C136.2 31.7259 136.375 32.2826 136.375 32.9727C136.375 33.4414 136.271 33.8711 136.063 34.2617C135.855 34.6523 135.555 34.9941 135.164 35.2871C134.774 35.5736 134.305 35.7982 133.758 35.9609C133.218 36.1172 132.609 36.1953 131.932 36.1953C130.949 36.1953 130.116 36.0195 129.432 35.668C128.755 35.3164 128.241 34.8704 127.889 34.3301C127.544 33.7832 127.371 33.2233 127.371 32.6504H130.037C130.051 33.0345 130.148 33.3438 130.33 33.5781C130.519 33.8125 130.757 33.9818 131.043 34.0859C131.336 34.1901 131.652 34.2422 131.991 34.2422C132.355 34.2422 132.658 34.1934 132.899 34.0957C133.14 33.9915 133.322 33.8548 133.446 33.6855C133.576 33.5098 133.641 33.3079 133.641 33.0801Z" fill="#FFF9FF"/>
</g>
<rect x="0.5" y="0.5" width="145" height="57" rx="7.5" stroke="#AFAFAF"/>
<defs>
<clipPath id="clip0_2_2526">
<rect width="146" height="58" rx="8" fill="white"/>
</clipPath>
</defs>
</svg>
