<svg width="146" height="58" viewBox="0 0 146 58" fill="none" xmlns="http://www.w3.org/2000/svg">
<g clip-path="url(#clip0_2_2537)">
<path fill-rule="evenodd" clip-rule="evenodd" d="M18.0625 14.625C17.6813 14.625 17.3156 14.7765 17.046 15.046C16.7765 15.3156 16.625 15.6813 16.625 16.0625V17.5014C15.2436 17.5216 14.6987 17.6869 14.1511 17.9801C13.5723 18.2865 13.099 18.7598 12.7926 19.3386C12.4793 19.9236 12.3125 20.5044 12.3125 22.1072V37.3303C12.3125 38.9317 12.4793 39.5139 12.7926 40.0989C13.106 40.684 13.566 41.144 14.1511 41.4574C14.7361 41.7708 15.3169 41.9375 16.9197 41.9375H33.5803C35.1817 41.9375 35.7639 41.7708 36.3489 41.4574C36.934 41.144 37.394 40.684 37.7074 40.0989C38.0208 39.5139 38.1875 38.9331 38.1875 37.3303V22.1072C38.1875 20.5044 38.0208 19.9236 37.7074 19.3386C37.401 18.7598 36.9277 18.2865 36.3489 17.9801C35.8013 17.6869 35.2564 17.5216 33.875 17.5V16.0625C33.875 15.6813 33.7236 15.3156 33.454 15.046C33.1844 14.7765 32.8187 14.625 32.4375 14.625C32.0563 14.625 31.6906 14.7765 31.421 15.046C31.1514 15.3156 31 15.6813 31 16.0625V17.5H19.5V16.0625C19.5 15.6813 19.3485 15.3156 19.079 15.046C18.8094 14.7765 18.4437 14.625 18.0625 14.625ZM15.1875 24.6875V37.3303C15.1875 37.9441 15.2148 38.3279 15.2579 38.5507C15.2752 38.637 15.2824 38.6571 15.3284 38.7434C15.3665 38.8212 15.4291 38.8843 15.5066 38.9231C15.5929 38.9676 15.6116 38.9748 15.6992 38.9921C15.9221 39.0352 16.3059 39.0625 16.9197 39.0625H33.5803C34.1941 39.0625 34.5779 39.0352 34.8007 38.9921C34.8691 38.9819 34.9346 38.958 34.9934 38.9216C35.0712 38.8835 35.1343 38.8209 35.1731 38.7434C35.2089 38.6845 35.2324 38.619 35.2421 38.5507C35.2852 38.3279 35.3125 37.9441 35.3125 37.3303L35.3182 24.6875H15.1875ZM27.7656 30.4375C27.4797 30.4375 27.2055 30.5511 27.0033 30.7533C26.8011 30.9555 26.6875 31.2297 26.6875 31.5156V35.1094C26.6875 35.7045 27.1705 36.1875 27.7656 36.1875H31.3594C31.6453 36.1875 31.9195 36.0739 32.1217 35.8717C32.3239 35.6695 32.4375 35.3953 32.4375 35.1094V31.5156C32.4375 31.2297 32.3239 30.9555 32.1217 30.7533C31.9195 30.5511 31.6453 30.4375 31.3594 30.4375H27.7656Z" fill="#FFF9FF"/>
<path d="M72.7812 33.7148V36H65.2129V33.7148H72.7812ZM66.1699 21.7812V36H63.2402V21.7812H66.1699ZM71.7949 27.5723V29.7988H65.2129V27.5723H71.7949ZM72.7715 21.7812V24.0762H65.2129V21.7812H72.7715ZM77.7543 33.9492L80.098 25.4336H83.0375L79.473 36H77.6957L77.7543 33.9492ZM76.143 25.4336L78.4965 33.959L78.5453 36H76.7582L73.1938 25.4336H76.143ZM89.1238 36.1953C88.3035 36.1953 87.5678 36.0651 86.9168 35.8047C86.2658 35.5378 85.7124 35.1699 85.2566 34.7012C84.8074 34.2324 84.4624 33.6888 84.2215 33.0703C83.9806 32.4453 83.8602 31.7812 83.8602 31.0781V30.6875C83.8602 29.8867 83.9741 29.1543 84.202 28.4902C84.4298 27.8262 84.7553 27.25 85.1785 26.7617C85.6082 26.2734 86.129 25.8991 86.741 25.6387C87.353 25.3717 88.0431 25.2383 88.8113 25.2383C89.56 25.2383 90.2241 25.362 90.8035 25.6094C91.3829 25.8568 91.868 26.2083 92.2586 26.6641C92.6557 27.1198 92.9552 27.6667 93.157 28.3047C93.3589 28.9362 93.4598 29.6393 93.4598 30.4141V31.5859H85.0613V29.7109H90.6961V29.4961C90.6961 29.1055 90.6245 28.7572 90.4813 28.4512C90.3445 28.1387 90.1362 27.8913 89.8563 27.709C89.5763 27.5267 89.2182 27.4355 88.782 27.4355C88.4109 27.4355 88.0919 27.5169 87.825 27.6797C87.5581 27.8424 87.34 28.0703 87.1707 28.3633C87.0079 28.6562 86.8842 29.0013 86.7996 29.3984C86.7215 29.7891 86.6824 30.2188 86.6824 30.6875V31.0781C86.6824 31.5013 86.741 31.8919 86.8582 32.25C86.9819 32.6081 87.1544 32.9173 87.3758 33.1777C87.6036 33.4382 87.8771 33.64 88.1961 33.7832C88.5216 33.9264 88.8895 33.998 89.2996 33.998C89.8074 33.998 90.2794 33.9004 90.7156 33.7051C91.1583 33.5033 91.5392 33.2005 91.8582 32.7969L93.2254 34.2812C93.004 34.6003 92.7013 34.9062 92.3172 35.1992C91.9396 35.4922 91.4839 35.7331 90.95 35.9219C90.4161 36.1042 89.8074 36.1953 89.1238 36.1953ZM97.9152 27.6895V36H95.1027V25.4336H97.7395L97.9152 27.6895ZM97.5051 30.3457H96.7434C96.7434 29.5645 96.8443 28.8613 97.0461 28.2363C97.2479 27.6048 97.5311 27.0677 97.8957 26.625C98.2603 26.1758 98.6932 25.834 99.1945 25.5996C99.7023 25.3587 100.269 25.2383 100.894 25.2383C101.389 25.2383 101.841 25.3099 102.251 25.4531C102.661 25.5964 103.013 25.8242 103.306 26.1367C103.605 26.4492 103.833 26.8626 103.989 27.377C104.152 27.8913 104.234 28.5195 104.234 29.2617V36H101.402V29.252C101.402 28.7832 101.336 28.4186 101.206 28.1582C101.076 27.8978 100.884 27.7155 100.63 27.6113C100.383 27.5007 100.077 27.4453 99.7121 27.4453C99.3345 27.4453 99.0057 27.5202 98.7258 27.6699C98.4523 27.8197 98.2245 28.028 98.0422 28.2949C97.8664 28.5553 97.7329 28.8613 97.6418 29.2129C97.5507 29.5645 97.5051 29.9421 97.5051 30.3457ZM111.648 25.4336V27.4258H105.496V25.4336H111.648ZM107.019 22.8262H109.832V32.8164C109.832 33.1224 109.871 33.3568 109.949 33.5195C110.033 33.6823 110.157 33.7962 110.32 33.8613C110.483 33.9199 110.688 33.9492 110.935 33.9492C111.111 33.9492 111.267 33.9427 111.404 33.9297C111.547 33.9102 111.668 33.8906 111.765 33.8711L111.775 35.9414C111.534 36.0195 111.274 36.0814 110.994 36.127C110.714 36.1725 110.405 36.1953 110.066 36.1953C109.448 36.1953 108.907 36.0944 108.445 35.8926C107.989 35.6842 107.638 35.3522 107.39 34.8965C107.143 34.4408 107.019 33.8418 107.019 33.0996V22.8262ZM119.062 33.0801C119.062 32.8783 119.004 32.696 118.887 32.5332C118.77 32.3704 118.551 32.2207 118.232 32.084C117.92 31.9408 117.467 31.8105 116.875 31.6934C116.341 31.5762 115.843 31.4297 115.381 31.2539C114.925 31.0716 114.528 30.8535 114.189 30.5996C113.857 30.3457 113.597 30.0462 113.408 29.7012C113.219 29.3496 113.125 28.9492 113.125 28.5C113.125 28.0573 113.219 27.6406 113.408 27.25C113.604 26.8594 113.88 26.5143 114.238 26.2148C114.603 25.9089 115.046 25.6712 115.566 25.502C116.094 25.3262 116.686 25.2383 117.344 25.2383C118.262 25.2383 119.049 25.3848 119.707 25.6777C120.371 25.9707 120.879 26.3743 121.23 26.8887C121.589 27.3965 121.768 27.9759 121.768 28.627H118.955C118.955 28.3535 118.896 28.1094 118.779 27.8945C118.669 27.6732 118.493 27.5007 118.252 27.377C118.018 27.2467 117.712 27.1816 117.334 27.1816C117.021 27.1816 116.751 27.237 116.523 27.3477C116.296 27.4518 116.12 27.5951 115.996 27.7773C115.879 27.9531 115.82 28.1484 115.82 28.3633C115.82 28.526 115.853 28.6725 115.918 28.8027C115.99 28.9264 116.104 29.0404 116.26 29.1445C116.416 29.2487 116.618 29.3464 116.865 29.4375C117.119 29.5221 117.432 29.6003 117.803 29.6719C118.564 29.8281 119.245 30.0332 119.844 30.2871C120.443 30.5345 120.918 30.873 121.27 31.3027C121.621 31.7259 121.797 32.2826 121.797 32.9727C121.797 33.4414 121.693 33.8711 121.484 34.2617C121.276 34.6523 120.977 34.9941 120.586 35.2871C120.195 35.5736 119.727 35.7982 119.18 35.9609C118.639 36.1172 118.031 36.1953 117.354 36.1953C116.37 36.1953 115.537 36.0195 114.854 35.668C114.176 35.3164 113.662 34.8704 113.311 34.3301C112.965 33.7832 112.793 33.2233 112.793 32.6504H115.459C115.472 33.0345 115.57 33.3438 115.752 33.5781C115.941 33.8125 116.178 33.9818 116.465 34.0859C116.758 34.1901 117.074 34.2422 117.412 34.2422C117.777 34.2422 118.079 34.1934 118.32 34.0957C118.561 33.9915 118.743 33.8548 118.867 33.6855C118.997 33.5098 119.062 33.3079 119.062 33.0801Z" fill="#FFF9FF"/>
</g>
<rect x="0.5" y="0.5" width="145" height="57" rx="7.5" stroke="#AFAFAF"/>
<defs>
<clipPath id="clip0_2_2537">
<rect width="146" height="58" rx="8" fill="white"/>
</clipPath>
</defs>
</svg>
