<svg width="146" height="58" viewBox="0 0 146 58" fill="none" xmlns="http://www.w3.org/2000/svg">
<g clip-path="url(#clip0_2_2501)">
<path d="M25.25 23.9687C25.25 23.1748 24.6064 22.5312 23.8125 22.5312C23.0186 22.5312 22.375 23.1748 22.375 23.9687V24.6875H21.6562C20.8623 24.6875 20.2188 25.3311 20.2188 26.125C20.2188 26.9189 20.8623 27.5625 21.6562 27.5625H22.375V28.2812C22.375 29.0752 23.0186 29.7187 23.8125 29.7187C24.6064 29.7187 25.25 29.0752 25.25 28.2812V27.5625H25.9688C26.7627 27.5625 27.4062 26.9189 27.4062 26.125C27.4062 25.3311 26.7627 24.6875 25.9688 24.6875H25.25V23.9687Z" fill="#FFF9FF"/>
<path d="M39.625 23.25C39.625 24.0439 38.9814 24.6875 38.1875 24.6875C37.3936 24.6875 36.75 24.0439 36.75 23.25C36.75 22.4561 37.3936 21.8125 38.1875 21.8125C38.9814 21.8125 39.625 22.4561 39.625 23.25Z" fill="#FFF9FF"/>
<path d="M38.1875 30.4375C38.9814 30.4375 39.625 29.7939 39.625 29C39.625 28.2061 38.9814 27.5625 38.1875 27.5625C37.3936 27.5625 36.75 28.2061 36.75 29C36.75 29.7939 37.3936 30.4375 38.1875 30.4375Z" fill="#FFF9FF"/>
<path d="M36.75 26.125C36.75 26.9189 36.1064 27.5625 35.3125 27.5625C34.5186 27.5625 33.875 26.9189 33.875 26.125C33.875 25.3311 34.5186 24.6875 35.3125 24.6875C36.1064 24.6875 36.75 25.3311 36.75 26.125Z" fill="#FFF9FF"/>
<path d="M41.0625 27.5625C41.8564 27.5625 42.5 26.9189 42.5 26.125C42.5 25.3311 41.8564 24.6875 41.0625 24.6875C40.2686 24.6875 39.625 25.3311 39.625 26.125C39.625 26.9189 40.2686 27.5625 41.0625 27.5625Z" fill="#FFF9FF"/>
<path fill-rule="evenodd" clip-rule="evenodd" d="M31 16.0625C28.3951 16.0625 25.1959 16.4336 22.6881 16.7946C19.4181 17.2653 16.7557 19.6806 16.0642 22.9457C15.6773 24.7728 15.2981 26.9332 15.2112 28.7418C15.1489 30.0386 15.0121 31.8507 14.8671 33.5889C14.7163 35.3974 15.319 37.2605 16.4249 38.5854C17.5534 39.9375 19.3406 40.8489 21.4027 40.2719C22.723 39.9023 23.7781 38.9744 24.5607 38.06C25.3607 37.1255 25.9974 36.0616 26.4508 35.1961C26.7999 34.5296 27.4196 34.1542 28.0033 34.1542H33.9966C34.5802 34.1542 35.2001 34.5296 35.5491 35.1961C36.0026 36.0616 36.6393 37.1255 37.4392 38.06C38.2218 38.9744 39.2768 39.9023 40.5971 40.2719C42.6592 40.8489 44.4465 39.9375 45.5751 38.5854C46.6809 37.2605 47.2835 35.3974 47.1327 33.5889C46.9878 31.8507 46.851 30.0386 46.7887 28.7418C46.7018 26.9332 46.3226 24.7728 45.9356 22.9457C45.2442 19.6806 42.5818 17.2653 39.3117 16.7946C36.804 16.4336 33.6049 16.0625 31 16.0625ZM23.0977 19.6403C25.5769 19.2834 28.6091 18.9375 31 18.9375C33.3908 18.9375 36.4229 19.2834 38.9022 19.6403C41.0122 19.944 42.6884 21.4889 43.123 23.5413C43.5015 25.3281 43.8414 27.3071 43.9171 28.8798C43.9819 30.2305 44.1225 32.0853 44.2677 33.8278C44.3561 34.8874 43.9866 36.0018 43.3678 36.7432C42.7715 37.4577 42.0815 37.7018 41.372 37.5032C40.8464 37.356 40.247 36.9192 39.6234 36.1905C39.017 35.4823 38.4957 34.6251 38.0958 33.8619C37.3311 32.4021 35.813 31.2792 33.9966 31.2792H28.0033C26.1869 31.2792 24.6688 32.4021 23.9041 33.8619C23.5042 34.6251 22.9828 35.4823 22.3765 36.1905C21.7529 36.9192 21.1535 37.356 20.6279 37.5032C19.9184 37.7018 19.2283 37.4577 18.6321 36.7432C18.0132 36.0018 17.6438 34.8874 17.7322 33.8278C17.8775 32.0853 18.018 30.2305 18.0829 28.8798C18.1584 27.3071 18.4984 25.3281 18.8769 23.5413C19.3115 21.4889 20.9877 19.944 23.0977 19.6403Z" fill="#FFF9FF"/>
<path d="M78.9719 28.5684V34.2031C78.7505 34.4701 78.4087 34.7598 77.9465 35.0723C77.4842 35.3783 76.8885 35.6419 76.1594 35.8633C75.4302 36.0846 74.548 36.1953 73.5129 36.1953C72.5949 36.1953 71.7583 36.0456 71.0031 35.7461C70.2479 35.4401 69.5969 34.9941 69.05 34.4082C68.5096 33.8223 68.093 33.1061 67.8 32.2598C67.507 31.4069 67.3605 30.4336 67.3605 29.3398V28.4512C67.3605 27.3574 67.5005 26.3841 67.7805 25.5312C68.0669 24.6784 68.4738 23.959 69.0012 23.373C69.5285 22.7871 70.1568 22.3411 70.8859 22.0352C71.6151 21.7292 72.4257 21.5762 73.3176 21.5762C74.5546 21.5762 75.5702 21.778 76.3645 22.1816C77.1587 22.5788 77.7642 23.1322 78.1809 23.8418C78.604 24.5449 78.8645 25.3522 78.9621 26.2637H76.1203C76.0487 25.7819 75.912 25.362 75.7102 25.0039C75.5083 24.6458 75.2186 24.3659 74.841 24.1641C74.4699 23.9622 73.9882 23.8613 73.3957 23.8613C72.9074 23.8613 72.4712 23.9622 72.0871 24.1641C71.7095 24.3594 71.3905 24.6491 71.1301 25.0332C70.8697 25.4173 70.6711 25.8926 70.5344 26.459C70.3977 27.0254 70.3293 27.6829 70.3293 28.4316V29.3398C70.3293 30.082 70.4009 30.7396 70.5441 31.3125C70.6874 31.8789 70.899 32.3574 71.1789 32.748C71.4654 33.1322 71.8169 33.4219 72.2336 33.6172C72.6503 33.8125 73.1353 33.9102 73.6887 33.9102C74.1509 33.9102 74.535 33.8711 74.841 33.793C75.1535 33.7148 75.4042 33.6204 75.593 33.5098C75.7883 33.3926 75.938 33.2819 76.0422 33.1777V30.6582H73.3664V28.5684H78.9719ZM86.9625 33.6172V28.9102C86.9625 28.5716 86.9072 28.2819 86.7965 28.041C86.6858 27.7936 86.5133 27.6016 86.2789 27.4648C86.051 27.3281 85.7548 27.2598 85.3902 27.2598C85.0777 27.2598 84.8076 27.3151 84.5797 27.4258C84.3518 27.5299 84.176 27.6829 84.0523 27.8848C83.9286 28.0801 83.8668 28.3112 83.8668 28.5781H81.0543C81.0543 28.1289 81.1585 27.7025 81.3668 27.2988C81.5751 26.8952 81.8779 26.5404 82.275 26.2344C82.6721 25.9219 83.1441 25.6777 83.691 25.502C84.2444 25.3262 84.8629 25.2383 85.5465 25.2383C86.3668 25.2383 87.096 25.375 87.734 25.6484C88.372 25.9219 88.8733 26.332 89.2379 26.8789C89.609 27.4258 89.7945 28.1094 89.7945 28.9297V33.4512C89.7945 34.0306 89.8303 34.5059 89.902 34.877C89.9736 35.2415 90.0777 35.5605 90.2145 35.834V36H87.3727C87.2359 35.7135 87.1318 35.3555 87.0602 34.9258C86.9951 34.4896 86.9625 34.0534 86.9625 33.6172ZM87.3336 29.5645L87.3531 31.1562H85.7809C85.4098 31.1562 85.0875 31.1986 84.8141 31.2832C84.5406 31.3678 84.316 31.4883 84.1402 31.6445C83.9645 31.7943 83.8342 31.9701 83.7496 32.1719C83.6715 32.3737 83.6324 32.5951 83.6324 32.8359C83.6324 33.0768 83.6878 33.2949 83.7984 33.4902C83.9091 33.679 84.0686 33.8288 84.277 33.9395C84.4853 34.0436 84.7294 34.0957 85.0094 34.0957C85.4326 34.0957 85.8004 34.0111 86.1129 33.8418C86.4254 33.6725 86.6663 33.4642 86.8355 33.2168C87.0113 32.9694 87.1025 32.735 87.109 32.5137L87.8512 33.7051C87.747 33.972 87.6038 34.2487 87.4215 34.5352C87.2457 34.8216 87.0211 35.0918 86.7477 35.3457C86.4742 35.5931 86.1454 35.7982 85.7613 35.9609C85.3772 36.1172 84.9215 36.1953 84.3941 36.1953C83.7236 36.1953 83.1148 36.0618 82.568 35.7949C82.0276 35.5215 81.5979 35.1471 81.2789 34.6719C80.9664 34.1901 80.8102 33.6432 80.8102 33.0312C80.8102 32.4779 80.9143 31.9863 81.1227 31.5566C81.331 31.127 81.637 30.7656 82.0406 30.4727C82.4508 30.1732 82.9618 29.9486 83.5738 29.7988C84.1858 29.6426 84.8954 29.5645 85.7027 29.5645H87.3336ZM94.875 27.6211V36H92.0527V25.4336H94.6992L94.875 27.6211ZM94.4844 30.3457H93.7031C93.7031 29.61 93.791 28.9329 93.9668 28.3145C94.1491 27.6895 94.4128 27.1491 94.7578 26.6934C95.1094 26.2311 95.5423 25.873 96.0566 25.6191C96.571 25.3652 97.1667 25.2383 97.8438 25.2383C98.3125 25.2383 98.7422 25.3099 99.1328 25.4531C99.5234 25.5898 99.8587 25.8079 100.139 26.1074C100.425 26.4004 100.646 26.7845 100.803 27.2598C100.959 27.7285 101.037 28.2917 101.037 28.9492V36H98.2246V29.2617C98.2246 28.7799 98.1595 28.4089 98.0293 28.1484C97.8991 27.888 97.7135 27.7057 97.4727 27.6016C97.2383 27.4974 96.9551 27.4453 96.623 27.4453C96.2585 27.4453 95.9395 27.5202 95.666 27.6699C95.3991 27.8197 95.1777 28.028 95.002 28.2949C94.8262 28.5553 94.696 28.8613 94.6113 29.2129C94.5267 29.5645 94.4844 29.9421 94.4844 30.3457ZM100.773 30.0234L99.7676 30.1504C99.7676 29.4603 99.8522 28.819 100.021 28.2266C100.197 27.6341 100.454 27.1133 100.793 26.6641C101.138 26.2148 101.564 25.8665 102.072 25.6191C102.58 25.3652 103.166 25.2383 103.83 25.2383C104.338 25.2383 104.8 25.3132 105.217 25.4629C105.633 25.6061 105.988 25.8372 106.281 26.1562C106.581 26.4688 106.809 26.8789 106.965 27.3867C107.128 27.8945 107.209 28.5163 107.209 29.252V36H104.387V29.252C104.387 28.7637 104.322 28.3926 104.191 28.1387C104.068 27.8783 103.885 27.6992 103.645 27.6016C103.41 27.4974 103.13 27.4453 102.805 27.4453C102.466 27.4453 102.17 27.5137 101.916 27.6504C101.662 27.7806 101.451 27.9629 101.281 28.1973C101.112 28.4316 100.985 28.7051 100.9 29.0176C100.816 29.3236 100.773 29.6589 100.773 30.0234ZM114.35 36.1953C113.53 36.1953 112.794 36.0651 112.143 35.8047C111.492 35.5378 110.939 35.1699 110.483 34.7012C110.034 34.2324 109.689 33.6888 109.448 33.0703C109.207 32.4453 109.086 31.7812 109.086 31.0781V30.6875C109.086 29.8867 109.2 29.1543 109.428 28.4902C109.656 27.8262 109.982 27.25 110.405 26.7617C110.834 26.2734 111.355 25.8991 111.967 25.6387C112.579 25.3717 113.269 25.2383 114.037 25.2383C114.786 25.2383 115.45 25.362 116.03 25.6094C116.609 25.8568 117.094 26.2083 117.485 26.6641C117.882 27.1198 118.181 27.6667 118.383 28.3047C118.585 28.9362 118.686 29.6393 118.686 30.4141V31.5859H110.287V29.7109H115.922V29.4961C115.922 29.1055 115.851 28.7572 115.707 28.4512C115.571 28.1387 115.362 27.8913 115.082 27.709C114.802 27.5267 114.444 27.4355 114.008 27.4355C113.637 27.4355 113.318 27.5169 113.051 27.6797C112.784 27.8424 112.566 28.0703 112.397 28.3633C112.234 28.6562 112.11 29.0013 112.026 29.3984C111.948 29.7891 111.909 30.2188 111.909 30.6875V31.0781C111.909 31.5013 111.967 31.8919 112.084 32.25C112.208 32.6081 112.381 32.9173 112.602 33.1777C112.83 33.4382 113.103 33.64 113.422 33.7832C113.748 33.9264 114.116 33.998 114.526 33.998C115.034 33.998 115.506 33.9004 115.942 33.7051C116.385 33.5033 116.765 33.2005 117.084 32.7969L118.452 34.2812C118.23 34.6003 117.927 34.9062 117.543 35.1992C117.166 35.4922 116.71 35.7331 116.176 35.9219C115.642 36.1042 115.034 36.1953 114.35 36.1953ZM126.1 33.0801C126.1 32.8783 126.042 32.696 125.925 32.5332C125.807 32.3704 125.589 32.2207 125.27 32.084C124.958 31.9408 124.505 31.8105 123.913 31.6934C123.379 31.5762 122.881 31.4297 122.419 31.2539C121.963 31.0716 121.566 30.8535 121.227 30.5996C120.895 30.3457 120.635 30.0462 120.446 29.7012C120.257 29.3496 120.163 28.9492 120.163 28.5C120.163 28.0573 120.257 27.6406 120.446 27.25C120.641 26.8594 120.918 26.5143 121.276 26.2148C121.641 25.9089 122.083 25.6712 122.604 25.502C123.132 25.3262 123.724 25.2383 124.382 25.2383C125.3 25.2383 126.087 25.3848 126.745 25.6777C127.409 25.9707 127.917 26.3743 128.268 26.8887C128.626 27.3965 128.805 27.9759 128.805 28.627H125.993C125.993 28.3535 125.934 28.1094 125.817 27.8945C125.707 27.6732 125.531 27.5007 125.29 27.377C125.055 27.2467 124.749 27.1816 124.372 27.1816C124.059 27.1816 123.789 27.237 123.561 27.3477C123.333 27.4518 123.158 27.5951 123.034 27.7773C122.917 27.9531 122.858 28.1484 122.858 28.3633C122.858 28.526 122.891 28.6725 122.956 28.8027C123.027 28.9264 123.141 29.0404 123.298 29.1445C123.454 29.2487 123.656 29.3464 123.903 29.4375C124.157 29.5221 124.47 29.6003 124.841 29.6719C125.602 29.8281 126.283 30.0332 126.882 30.2871C127.481 30.5345 127.956 30.873 128.307 31.3027C128.659 31.7259 128.835 32.2826 128.835 32.9727C128.835 33.4414 128.731 33.8711 128.522 34.2617C128.314 34.6523 128.014 34.9941 127.624 35.2871C127.233 35.5736 126.764 35.7982 126.218 35.9609C125.677 36.1172 125.068 36.1953 124.391 36.1953C123.408 36.1953 122.575 36.0195 121.891 35.668C121.214 35.3164 120.7 34.8704 120.348 34.3301C120.003 33.7832 119.831 33.2233 119.831 32.6504H122.497C122.51 33.0345 122.608 33.3438 122.79 33.5781C122.979 33.8125 123.216 33.9818 123.503 34.0859C123.796 34.1901 124.111 34.2422 124.45 34.2422C124.815 34.2422 125.117 34.1934 125.358 34.0957C125.599 33.9915 125.781 33.8548 125.905 33.6855C126.035 33.5098 126.1 33.3079 126.1 33.0801Z" fill="#FFF9FF"/>
</g>
<rect x="0.5" y="0.5" width="145" height="57" rx="7.5" stroke="#AFAFAF"/>
<defs>
<clipPath id="clip0_2_2501">
<rect width="146" height="58" rx="8" fill="white"/>
</clipPath>
</defs>
</svg>
